<svg width="24" height="24" xmlns="http://www.w3.org/2000/svg">
 <g>
  <title>Layer 1</title>
  <path stroke="#56ff56" fill="#7fff00" id="svg_1" d="m21.384,17.752a2.108,2.108 0 0 1 -0.522,3.359a7.543,7.543 0 0 1 -5.476,0.642c-4.886,-1.23 -11.909,-8.253 -13.139,-13.139a7.543,7.543 0 0 1 0.642,-5.476a2.108,2.108 0 0 1 3.359,-0.522l2.085,2.084a2.094,2.094 0 0 1 0.445,2.328a3.877,3.877 0 0 1 -0.778,1.172c-2.384,2.384 5.417,10.185 7.8,7.8a3.877,3.877 0 0 1 1.173,-0.781a2.092,2.092 0 0 1 2.328,0.445l2.083,2.088z"/>
 </g>

</svg>